<svg xmlns="http://www.w3.org/2000/svg" width="685" height="357" fill="none"><path fill="#1E6851" fill-rule="evenodd" d="M348.168 356.361c-73.415-6.429-140.733-53.224-187.151-110.346-43.974-54.114-35.775-131.232-61.701-195.89C71.155-20.102-10.301-76.097 1.946-150.688c12.152-74.017 94.987-113.332 156.117-156.99 51.639-36.88 115.661-45.248 170.885-76.551 72.256-40.958 120.986-144.013 203.754-135.811 79.975 7.926 120.552 103.763 162.567 172.115 34.493 56.114 41.482 121.563 57.23 185.459 14.562 59.086 27.935 115.853 31.992 176.55 5.304 79.36 48.49 175.116-4.52 234.473-52.95 59.29-155.546 11.984-232.811 31.274-70.17 17.519-126.903 82.844-198.992 76.531" clip-rule="evenodd"/></svg>