<svg width="589" height="342" viewBox="0 0 589 342" fill="none" xmlns="http://www.w3.org/2000/svg">
<path fill-rule="evenodd" clip-rule="evenodd" d="M-213.79 245.3C-199.565 180.445 -148.229 126.572 -89.5588 92.8249C-33.9785 60.8552 37.31 78.7484 100.744 64.3812C169.646 48.7757 231.177 -16.4978 299.646 4.67405C367.588 25.6829 395.14 105.232 429.184 165.94C457.943 217.224 458.622 275.694 481.759 329.424C512.032 399.725 603.074 457.46 586.144 530.447C569.785 600.972 475.52 624.191 406.828 652.458C350.434 675.665 288.374 672.967 226.79 678.325C169.842 683.28 115.196 687.487 57.9147 682.814C-16.9817 676.705 -111.463 702.271 -161.114 646.684C-210.708 591.161 -154.95 505.77 -164.376 433.948C-172.936 368.721 -227.757 308.985 -213.79 245.3Z" fill="#1E6851"/>
</svg>
