<svg width="586" height="368" viewBox="0 0 586 368" fill="none" xmlns="http://www.w3.org/2000/svg">
<path fill-rule="evenodd" clip-rule="evenodd" d="M1.24563 282.424C-55.6562 248.207 -90.2843 182.339 -103.498 115.958C-116.016 53.0733 -76.2658 -8.75031 -69.594 -73.4482C-62.347 -143.722 -104.517 -222.895 -62.5623 -280.999C-20.9304 -338.655 63.2521 -339.323 131.66 -352.167C189.447 -363.016 245.064 -344.963 303.371 -349.703C379.662 -355.905 463.478 -423.706 527.219 -384.325C588.81 -346.273 580.666 -249.532 585.483 -175.408C589.438 -114.554 567.037 -56.6153 552.42 3.44841C538.904 58.9911 525.416 112.112 502.671 164.892C472.933 233.902 466.944 331.598 398.398 360.867C329.932 390.102 266.854 309.966 195.789 295.929C131.25 283.182 57.1197 316.023 1.24563 282.424Z" fill="#1E6851"/>
</svg>
