<svg width="753" height="498" viewBox="0 0 753 498" fill="none" xmlns="http://www.w3.org/2000/svg">
<path fill-rule="evenodd" clip-rule="evenodd" d="M145.991 819.29C72.271 773.959 25.1481 690.455 5.09677 607.39C-13.8986 528.699 33.298 453.949 38.494 373.97C44.1378 287.099 -13.1964 186.701 36.977 116.679C86.764 47.1958 193.253 50.5912 279.171 38.0805C351.749 27.512 423.032 52.7135 496.575 49.7549C592.801 45.8838 695.457 -34.0745 778.09 18.0092C857.935 68.3362 852.485 188.017 862.3 280.273C870.358 356.014 844.919 426.812 829.437 500.639C815.121 568.909 800.719 634.174 774.587 698.551C740.42 782.725 737.743 903.7 652.476 936.593C567.307 969.448 483.469 866.806 392.84 845.816C310.534 826.754 218.378 863.801 145.991 819.29Z" fill="#1E6851"/>
</svg>
