<svg xmlns="http://www.w3.org/2000/svg" width="402" height="272" fill="none"><path fill="#1E6851" fill-rule="evenodd" d="M41.155 270.12C-12.53 259.658-57.55 217.718-86.037 169.141c-26.986-46.019-12.984-106.41-25.525-159.446-13.622-57.607-68.162-107.859-51.423-165.955 16.611-57.649 81.976-82.675 131.72-112.726 42.021-25.386 90.276-27.315 134.377-48.028 57.703-27.1 104.379-105.037 164.806-92.487 58.388 12.126 78.567 90.895 102.639 148.031 19.762 46.907 18.202 99.182 23.287 150.869 4.702 47.797 8.762 93.674 5.522 141.975-4.238 63.154 17.881 142.05-27.467 185.112-45.297 43.013-116.38-1.915-175.562 7.682-53.747 8.716-102.465 56.225-155.182 45.952" clip-rule="evenodd"/></svg>