<svg width="746" height="175" viewBox="0 0 746 175" fill="none" xmlns="http://www.w3.org/2000/svg">
<path fill-rule="evenodd" clip-rule="evenodd" d="M333.148 174.333C265.94 172.647 202.984 130.371 158.767 76.468C116.877 25.4038 121.854 -51.9217 96.0927 -114.644C68.1111 -182.773 -8.04595 -233.303 0.707122 -308.371C9.39279 -382.861 83.7112 -427.334 138.08 -474.738C184.009 -514.783 242.164 -527.229 291.545 -561.95C356.155 -607.38 397.279 -713.138 473.08 -710.287C546.324 -707.532 586.469 -614.699 627.033 -549.33C660.335 -495.664 668.84 -430.936 685.287 -368.317C700.497 -310.412 714.546 -254.739 720.22 -194.556C727.64 -115.866 770.163 -23.2811 723.713 39.2356C677.317 101.681 582.15 61.1622 512.264 85.3362C448.795 107.29 399.143 175.988 333.148 174.333Z" fill="#1E6851"/>
</svg>
