<svg xmlns="http://www.w3.org/2000/svg" width="746" height="175" fill="none"><path fill="#1E6851" fill-rule="evenodd" d="M333.148 174.333c-67.208-1.686-130.164-43.962-174.381-97.865-41.89-51.064-36.913-128.39-62.674-191.112C68.11-182.773-8.046-233.303.707-308.371c8.686-74.49 83.004-118.963 137.373-166.367 45.929-40.045 104.084-52.491 153.465-87.212 64.61-45.43 105.734-151.188 181.535-148.337 73.244 2.755 113.389 95.588 153.953 160.957 33.302 53.666 41.807 118.394 58.254 181.013 15.21 57.905 29.259 113.578 34.933 173.761 7.42 78.69 49.943 171.275 3.493 233.792-46.396 62.445-141.563 21.926-211.449 46.1-63.469 21.954-113.121 90.652-179.116 88.997" clip-rule="evenodd"/></svg>