<svg width="556" height="438" viewBox="0 0 556 438" fill="none" xmlns="http://www.w3.org/2000/svg">
<path fill-rule="evenodd" clip-rule="evenodd" d="M-34.2793 367.121C-99.9199 333.618 -144.764 264.986 -166.361 194.621C-186.821 127.962 -150.287 59.5528 -150.062 -10.1078C-149.817 -85.7724 -204.316 -168.237 -164.979 -232.785C-125.945 -296.835 -34.4107 -302.201 38.633 -319.736C100.337 -334.548 162.822 -318.285 225.756 -326.583C308.1 -337.441 391.935 -414.686 465.579 -376.03C536.739 -338.678 538.396 -234.619 551.699 -155.497C562.619 -90.5399 544.542 -27.2498 535.168 37.8864C526.499 98.1198 517.598 155.758 498.587 213.542C473.729 289.096 477.835 394.06 406.427 429.193C335.102 464.286 257.748 381.945 178.889 370.838C107.273 360.751 30.1757 400.019 -34.2793 367.121Z" fill="#1E6851"/>
</svg>
