<svg width="402" height="272" viewBox="0 0 402 272" fill="none" xmlns="http://www.w3.org/2000/svg">
<path fill-rule="evenodd" clip-rule="evenodd" d="M41.1551 270.12C-12.5312 259.658 -57.551 217.718 -86.0373 169.141C-113.023 123.122 -99.0208 62.7301 -111.562 9.69478C-125.184 -47.9116 -179.724 -98.1637 -162.985 -156.26C-146.374 -213.909 -81.0092 -238.935 -31.2652 -268.986C10.7563 -294.372 59.011 -296.301 103.112 -317.014C160.815 -344.114 207.491 -422.051 267.918 -409.501C326.306 -397.375 346.485 -318.606 370.557 -261.47C390.319 -214.563 388.759 -162.288 393.844 -110.601C398.546 -62.8036 402.606 -16.9271 399.366 31.3738C395.128 94.5276 417.247 173.424 371.899 216.486C326.602 259.499 255.519 214.571 196.337 224.168C142.59 232.884 93.8718 280.393 41.1551 270.12Z" fill="#1E6851"/>
</svg>
