<svg xmlns="http://www.w3.org/2000/svg" width="549" height="212" fill="none"><path fill="#1E6851" fill-rule="evenodd" d="M112.612 155.753c-49.166-25.255-83.1-76.313-99.723-128.476-15.75-49.416 10.957-99.696 10.6-151.174-.39-55.915-41.621-117.268-12.796-164.673 28.603-47.039 96.769-50.313 151.065-62.72 45.867-10.481 92.551 2.009 139.384-3.649 61.277-7.402 123.164-63.854 178.332-34.731 53.307 28.14 55.327 105.054 65.836 163.626 8.628 48.086-4.364 94.722-10.858 142.787-6.005 44.448-12.203 86.976-25.933 129.535-17.952 55.647-14.101 133.248-67.045 158.673-52.884 25.395-111.145-36.04-169.991-44.843-53.442-7.995-110.594 20.443-158.871-4.355" clip-rule="evenodd"/></svg>