<svg width="549" height="212" viewBox="0 0 549 212" fill="none" xmlns="http://www.w3.org/2000/svg">
<path fill-rule="evenodd" clip-rule="evenodd" d="M112.612 155.753C63.4464 130.498 29.5127 79.4397 12.8886 27.2767C-2.86011 -22.1392 23.8463 -72.4188 23.4884 -123.897C23.0997 -179.812 -18.1322 -241.165 10.6927 -288.57C39.2956 -335.609 107.462 -338.883 161.758 -351.29C207.625 -361.771 254.309 -349.281 301.142 -354.939C362.419 -362.341 424.306 -418.793 479.474 -389.67C532.781 -361.53 534.801 -284.616 545.31 -226.044C553.938 -177.958 540.946 -131.322 534.452 -83.2569C528.447 -38.8093 522.249 3.71874 508.519 46.2783C490.567 101.925 494.418 179.526 441.474 204.951C388.59 230.346 330.329 168.911 271.483 160.108C218.041 152.113 160.889 180.551 112.612 155.753Z" fill="#1E6851"/>
</svg>
