<svg width="508" height="332" viewBox="0 0 508 332" fill="none" xmlns="http://www.w3.org/2000/svg">
<path fill-rule="evenodd" clip-rule="evenodd" d="M107.246 246.424C50.3439 212.207 15.7158 146.339 2.50206 79.9581C-10.0157 17.073 29.7343 -44.7506 36.4061 -109.448C43.6531 -179.722 1.48283 -258.895 43.4378 -316.999C85.0697 -374.655 169.252 -375.323 237.66 -388.167C295.447 -399.016 351.064 -380.963 409.371 -385.703C485.662 -391.905 569.478 -459.706 633.219 -420.325C694.81 -382.273 686.666 -285.532 691.483 -211.408C695.438 -150.554 673.037 -92.6156 658.42 -32.5519C644.904 22.9908 631.416 76.112 608.671 128.892C578.933 197.902 572.944 295.598 504.398 324.867C435.932 354.102 372.854 273.966 301.789 259.929C237.25 247.182 163.12 280.023 107.246 246.424Z" fill="#27E8AB"/>
</svg>
