<svg width="753" height="499" viewBox="0 0 753 499" fill="none" xmlns="http://www.w3.org/2000/svg">
<path fill-rule="evenodd" clip-rule="evenodd" d="M145.991 819.79C72.2711 774.459 25.1482 690.955 5.0969 607.89C-13.8985 529.199 33.2981 454.449 38.4941 374.47C44.1379 287.599 -13.1963 187.201 36.9771 117.179C86.7641 47.6959 193.253 51.0913 279.171 38.5806C351.749 28.0121 423.032 53.2136 496.575 50.255C592.801 46.3839 695.457 -33.5744 778.09 18.5093C857.935 68.8363 852.485 188.517 862.3 280.773C870.358 356.514 844.919 427.312 829.437 501.139C815.121 569.409 800.719 634.674 774.587 699.051C740.42 783.225 737.743 904.2 652.476 937.093C567.307 969.948 483.469 867.306 392.84 846.316C310.534 827.254 218.378 864.301 145.991 819.79Z" fill="#27E8AB"/>
</svg>
