<svg width="556" height="439" viewBox="0 0 556 439" fill="none" xmlns="http://www.w3.org/2000/svg">
<path fill-rule="evenodd" clip-rule="evenodd" d="M-34.2793 367.621C-99.9199 334.118 -144.764 265.486 -166.361 195.121C-186.821 128.462 -150.287 60.0528 -150.062 -9.60779C-149.817 -85.2724 -204.316 -167.737 -164.979 -232.285C-125.945 -296.335 -34.4107 -301.701 38.633 -319.236C100.337 -334.048 162.822 -317.785 225.756 -326.083C308.1 -336.941 391.935 -414.186 465.579 -375.53C536.739 -338.178 538.396 -234.119 551.699 -154.997C562.619 -90.0399 544.542 -26.7498 535.168 38.3864C526.499 98.6198 517.598 156.258 498.587 214.042C473.729 289.596 477.835 394.56 406.427 429.693C335.102 464.786 257.748 382.445 178.889 371.338C107.273 361.251 30.1757 400.519 -34.2793 367.621Z" fill="#27E8AB"/>
</svg>
