<svg width="685" height="357" viewBox="0 0 685 357" fill="none" xmlns="http://www.w3.org/2000/svg">
<path fill-rule="evenodd" clip-rule="evenodd" d="M347.668 356.361C274.253 349.932 206.935 303.137 160.517 246.015C116.543 191.901 124.742 114.783 98.8162 50.1251C70.6552 -20.1019 -10.8008 -76.0969 1.44623 -150.688C13.5982 -224.705 96.4332 -264.02 157.563 -307.678C209.202 -344.558 273.224 -352.926 328.448 -384.229C400.704 -425.187 449.434 -528.242 532.202 -520.04C612.177 -512.114 652.754 -416.277 694.769 -347.925C729.262 -291.811 736.251 -226.362 751.999 -162.466C766.561 -103.38 779.934 -46.6129 783.991 14.0841C789.295 93.4441 832.481 189.2 779.471 248.557C726.521 307.847 623.925 260.541 546.66 279.831C476.49 297.35 419.757 362.675 347.668 356.362" fill="#27E8AB"/>
</svg>
