<svg width="402" height="273" viewBox="0 0 402 273" fill="none" xmlns="http://www.w3.org/2000/svg">
<path fill-rule="evenodd" clip-rule="evenodd" d="M41.655 270.62C-12.03 260.158 -57.05 218.218 -85.537 169.641C-112.523 123.622 -98.521 63.231 -111.062 10.195C-124.684 -47.412 -179.224 -97.664 -162.485 -155.76C-145.874 -213.409 -80.509 -238.435 -30.765 -268.486C11.256 -293.872 59.511 -295.801 103.612 -316.514C161.315 -343.614 207.991 -421.551 268.418 -409.001C326.806 -396.875 346.985 -318.106 371.057 -260.97C390.819 -214.063 389.259 -161.788 394.344 -110.101C399.046 -62.304 403.106 -16.427 399.866 31.874C395.628 95.028 417.747 173.924 372.399 216.986C327.102 259.999 256.019 215.071 196.837 224.668C143.09 233.384 94.372 280.893 41.655 270.62Z" fill="#27E8AB"/>
</svg>
