<svg width="549" height="212" viewBox="0 0 549 212" fill="none" xmlns="http://www.w3.org/2000/svg">
<path fill-rule="evenodd" clip-rule="evenodd" d="M113.112 156.253C63.9458 130.998 30.0118 79.9402 13.3888 27.7772C-2.36124 -21.6388 24.3458 -71.9188 23.9888 -123.397C23.5988 -179.312 -17.6322 -240.665 11.1928 -288.07C39.7958 -335.109 107.962 -338.383 162.258 -350.79C208.125 -361.271 254.809 -348.781 301.642 -354.439C362.919 -361.841 424.806 -418.293 479.974 -389.17C533.281 -361.03 535.301 -284.116 545.81 -225.544C554.438 -177.458 541.446 -130.822 534.952 -82.7568C528.947 -38.3088 522.749 4.21917 509.019 46.7782C491.067 102.425 494.918 180.026 441.974 205.451C389.09 230.846 330.829 169.411 271.983 160.608C218.541 152.613 161.389 181.051 113.112 156.253Z" fill="#27E8AB"/>
</svg>
